<svg version="1.1" viewBox="0 0 1000 170" xmlns="http://www.w3.org/2000/svg" xmlns:xlink="http://www.w3.org/1999/xlink" id="Layer_1" overflow="hidden"><g><path d=" M 34.07 101.77 L 0 0 L 22.54 0 L 43.26 68.45 L 66.64 0 L 79.7 0 L 103.5 68.45 L 123.95 0 L 146.49 0 L 112.54 101.77 L 95.14 101.77 L 73.31 35.13 L 51.48 101.77 L 34.07 101.77 Z" fill="#282E36"/><path d=" M 217.12 71.06 L 160.2 71.06 C 162.96 81.68 170.35 87.05 182.31 87.05 C 190.52 87.05 200.27 83.89 206.78 79.47 L 214.56 93.09 C 204.97 99.96 193.95 103.43 181.44 103.43 C 168.1 103.43 157.91 99.56 150.85 91.98 C 143.74 84.4 140.27 75.04 140.27 64.15 C 140.27 52.7 143.9 43.35 151.24 35.92 C 158.62 28.5 168.06 24.75 179.74 24.75 C 190.71 24.75 199.91 28.18 207.02 34.93 C 214.13 41.68 217.72 50.76 217.72 62.48 C 217.79 65.14 217.51 68.02 217.12 71.06 Z M 160.19 56.61 L 198.72 56.61 C 196.9 46.82 189.8 40.9 179.81 40.9 C 169.94 40.9 162.56 46.82 160.19 56.61 Z" fill="#282E36"/><path d=" M 353.43 97.35 C 347.15 101.49 339.81 103.55 331.05 103.55 C 313.64 103.55 304.6 93.37 304.6 73.94 L 304.6 42.95 L 292.2 42.95 L 292.2 26.69 L 304.71 26.69 L 304.71 6.99 L 324.17 0.12 L 324.17 26.69 L 349.2 26.69 L 349.2 42.95 L 324.17 42.95 L 324.17 72.68 C 324.17 81.48 327.8 85.9 334.87 85.9 C 338.62 85.9 342.92 84.68 347.54 82.03 L 353.43 97.35 Z" fill="#282E36"/><path d=" M 434.55 71.06 L 377.67 71.06 C 380.43 81.68 387.82 87.05 399.78 87.05 C 407.99 87.05 417.74 83.89 424.25 79.47 L 432.03 93.09 C 422.44 99.96 411.42 103.43 398.91 103.43 C 385.57 103.43 375.38 99.56 368.32 91.98 C 361.21 84.4 357.74 75.04 357.74 64.15 C 357.74 52.7 361.37 43.35 368.71 35.92 C 376.09 28.5 385.53 24.75 397.21 24.75 C 408.18 24.75 417.38 28.18 424.49 34.93 C 431.6 41.68 435.19 50.76 435.19 62.48 C 435.26 65.14 434.98 68.02 434.55 71.06 Z M 377.66 56.61 L 416.19 56.61 C 414.37 46.82 407.27 40.9 397.28 40.9 C 387.38 40.9 380.03 46.82 377.66 56.61 Z" fill="#282E36"/><path d=" M 448.76 101.77 L 448.76 26.73 L 467.55 26.73 L 467.55 36.8 C 472.13 28.67 479.12 24.68 488.43 24.68 C 491.51 24.68 494.55 25.23 497.63 26.34 L 495.97 44.93 C 492.77 43.98 489.69 43.43 486.93 43.43 C 475.8 43.43 468.42 50.58 468.42 66.17 L 468.42 101.82 L 448.76 101.82 L 448.76 101.77 Z" fill="#282E36"/><path d=" M 507.3 101.77 L 507.3 26.73 L 526.49 26.73 L 526.49 37.19 C 530.52 29.89 539.56 24.68 550.29 24.68 C 558.5 24.68 565.61 27.44 571.29 32.81 C 576.97 38.18 579.94 45.88 579.94 55.94 L 579.94 101.77 L 560.32 101.77 L 560.32 61.15 C 560.32 49.19 553.92 42.56 544.33 42.56 C 533.91 42.56 526.92 50.42 526.92 61.55 L 526.92 101.78 L 507.3 101.78 Z" fill="#282E36"/><path d=" M 654.51 26.73 L 673.14 26.73 L 673.14 101.77 L 654.51 101.77 L 654.51 93.09 C 647.96 100.12 639.9 103.55 630.31 103.55 C 619.45 103.55 610.41 99.84 603.31 92.26 C 596.21 84.68 592.73 75.17 592.73 63.88 C 592.73 52.59 596.36 43.23 603.43 35.93 C 610.54 28.51 619.58 24.76 630.27 24.76 C 639.74 24.76 647.8 28.35 654.47 35.66 L 654.47 26.74 L 654.51 26.74 Z M 648.67 48.87 C 644.64 44.61 639.63 42.55 633.51 42.55 C 627.23 42.55 622.26 44.6 618.19 48.87 C 614.28 53.13 612.35 58.23 612.35 64.15 C 612.35 70.19 614.28 75.32 618.35 79.59 C 622.42 83.85 627.39 85.91 633.51 85.91 C 639.63 85.91 644.64 83.86 648.67 79.59 C 652.7 75.33 654.79 70.23 654.79 64.15 C 654.78 58.27 652.69 53.17 648.67 48.87 Z" fill="#282E36"/><path d=" M 698.05 92.41 C 690.55 85.11 686.8 75.59 686.8 64.18 C 686.8 52.73 690.55 43.26 698.21 35.95 C 705.87 28.53 715.62 24.78 727.58 24.78 C 743.02 24.78 756.67 32.36 762.91 45.7 L 747.2 54.23 C 742.62 46.65 736.07 42.78 727.86 42.78 C 721.58 42.78 716.45 44.83 712.43 48.98 C 708.4 52.97 706.31 58.06 706.31 64.14 C 706.31 70.34 708.24 75.43 712.31 79.58 C 716.34 83.57 721.51 85.62 727.47 85.62 C 735.4 85.62 743.46 80.92 746.81 74.33 L 762.68 83.57 C 756.13 95.69 742.67 103.39 727.07 103.39 C 715.18 103.43 705.55 99.72 698.05 92.41 Z" fill="#282E36"/><path d=" M 774.71 101.77 L 774.71 7.03 L 793.78 0.16 L 793.78 36.52 C 797.81 29.77 807 24.68 817.7 24.68 C 825.91 24.68 832.86 27.44 838.58 32.81 C 844.26 38.18 847.19 45.88 847.19 55.94 L 847.19 101.77 L 827.57 101.77 L 827.57 61.15 C 827.57 49.19 821.29 42.56 811.7 42.56 C 801.28 42.56 794.29 50.42 794.29 61.55 L 794.29 101.78 L 774.71 101.78 Z" fill="#282E36"/><path d=" M 936.92 71.06 L 880.04 71.06 C 882.8 81.68 890.19 87.05 902.15 87.05 C 910.36 87.05 920.11 83.89 926.62 79.47 L 934.4 93.09 C 924.81 99.96 913.79 103.43 901.28 103.43 C 887.94 103.43 877.75 99.56 870.69 91.98 C 863.58 84.4 860.11 75.04 860.11 64.15 C 860.11 52.7 863.74 43.35 871.08 35.92 C 878.46 28.5 887.9 24.75 899.58 24.75 C 910.55 24.75 919.75 28.18 926.86 34.93 C 933.97 41.68 937.56 50.76 937.56 62.48 C 937.63 65.14 937.35 68.02 936.92 71.06 Z M 880.03 56.61 L 918.56 56.61 C 916.74 46.82 909.64 40.9 899.65 40.9 C 889.74 40.9 882.4 46.82 880.03 56.61 Z" fill="#282E36"/><path d=" M 951.13 101.77 L 951.13 26.73 L 969.92 26.73 L 969.92 36.8 C 974.5 28.67 981.49 24.68 990.8 24.68 C 993.88 24.68 996.92 25.23 1000 26.34 L 998.34 44.93 C 995.14 43.98 992.06 43.43 989.3 43.43 C 978.17 43.43 970.79 50.58 970.79 66.17 L 970.79 101.82 L 951.13 101.82 L 951.13 101.77 Z" fill="#282E36"/><path d=" M 273.57 60.6 C 271.48 59.49 265.36 57.01 255.33 53.3 C 250.87 51.8 248.66 49.59 248.66 46.43 C 248.66 43 252.13 40.11 257.27 40.11 C 263.51 40.11 269.35 42.6 274.64 47.53 L 282.93 33.6 C 276.22 27.4 267.81 24.28 257.82 24.28 C 249.33 24.28 242.38 26.33 237.21 30.6 C 232.08 34.86 229.43 40.23 229.43 46.86 C 229.43 55.66 233.73 62.14 242.5 66.28 C 244.16 67.11 247.36 68.49 252.25 70.27 C 257.11 72.05 260.03 73.15 261.29 73.7 C 264.92 75.36 266.7 77.57 266.7 80.17 C 266.7 84.43 262.24 87.47 256.28 87.47 C 248.62 87.47 239.78 85.14 234.33 78.71 L 225.76 93.12 C 233.22 101.29 243.96 103.74 256.16 103.74 C 265.2 103.74 272.58 101.53 277.99 96.99 C 283.56 92.45 286.32 86.65 286.32 79.62 C 286.4 71.33 282.05 65.02 273.57 60.6 Z" fill="#282E36"/></g><g><path d=" M 512.82 142.32 L 525.57 159.07 L 525.57 142.32 L 531.48 142.32 L 531.48 169.53 L 526.39 169.53 L 513.21 152.23 L 513.21 169.53 L 507.3 169.53 L 507.3 142.32 L 512.82 142.32 Z" fill="#1596D1"/><path d=" M 536.49 155.93 C 536.49 148.19 542.59 141.86 550.99 141.86 C 559.39 141.86 565.41 148.12 565.41 155.93 C 565.41 163.67 559.31 170 550.91 170 C 542.51 170 536.49 163.74 536.49 155.93 Z M 559.15 155.93 C 559.15 151.27 555.73 147.38 550.91 147.38 C 546.09 147.38 542.75 151.19 542.75 155.93 C 542.75 160.59 546.17 164.48 550.99 164.48 C 555.8 164.48 559.15 160.67 559.15 155.93 Z" fill="#1596D1"/><path d=" M 575.95 142.32 L 588.7 159.07 L 588.7 142.32 L 594.61 142.32 L 594.61 169.53 L 589.52 169.53 L 576.34 152.23 L 576.34 169.53 L 570.43 169.53 L 570.43 142.32 L 575.95 142.32 Z" fill="#1596D1"/><path d=" M 599.12 165.57 L 602.66 161.33 C 605.11 163.35 607.67 164.63 610.78 164.63 C 613.23 164.63 614.71 163.66 614.71 161.99 C 614.71 160.47 613.78 159.7 609.23 158.53 C 603.75 157.13 600.21 155.61 600.21 150.13 C 600.21 145.19 604.17 141.93 609.73 141.93 C 613.7 141.93 617.08 143.17 619.84 145.39 L 616.73 149.9 C 614.32 148.23 611.95 147.22 609.66 147.22 C 607.37 147.22 606.16 148.27 606.16 149.67 C 606.16 151.46 607.33 152.04 612.03 153.25 C 617.55 154.69 620.66 156.67 620.66 161.49 C 620.66 166.89 616.54 169.92 610.67 169.92 C 606.54 169.92 602.38 168.48 599.12 165.57 Z" fill="#1596D1"/><path d=" M 623.43 147.84 L 623.43 142.32 L 645.97 142.32 L 645.97 147.84 L 637.69 147.84 L 637.69 169.53 L 631.7 169.53 L 631.7 147.84 L 623.43 147.84 Z" fill="#1596D1"/><path d=" M 648.08 155.93 C 648.08 148.19 654.18 141.86 662.58 141.86 C 670.98 141.86 677 148.12 677 155.93 C 677 163.67 670.9 170 662.5 170 C 654.1 170 648.08 163.74 648.08 155.93 Z M 670.74 155.93 C 670.74 151.27 667.32 147.38 662.5 147.38 C 657.68 147.38 654.34 151.19 654.34 155.93 C 654.34 160.59 657.76 164.48 662.58 164.48 C 667.4 164.48 670.74 160.67 670.74 155.93 Z" fill="#1596D1"/><path d=" M 693.14 142.32 C 699.63 142.32 703.56 146.17 703.56 151.8 C 703.56 158.1 698.66 161.36 692.56 161.36 L 688.01 161.36 L 688.01 169.52 L 682.02 169.52 L 682.02 142.31 L 693.14 142.31 Z M 697.5 151.85 C 697.5 149.17 695.63 147.73 692.64 147.73 L 688.01 147.73 L 688.01 156.05 L 692.75 156.05 C 695.75 156.05 697.5 154.26 697.5 151.85 Z" fill="#1596D1"/><path d=" M 725.75 142.32 L 725.75 169.53 L 719.76 169.53 L 719.76 142.32 L 725.75 142.32 Z" fill="#1596D1"/><path d=" M 737.8 142.32 L 750.55 159.07 L 750.55 142.32 L 756.46 142.32 L 756.46 169.53 L 751.37 169.53 L 738.19 152.23 L 738.19 169.53 L 732.28 169.53 L 732.28 142.32 L 737.8 142.32 Z" fill="#1596D1"/><path d=" M 768.46 142.32 L 781.21 159.07 L 781.21 142.32 L 787.12 142.32 L 787.12 169.53 L 782.03 169.53 L 768.85 152.23 L 768.85 169.53 L 762.94 169.53 L 762.94 142.32 L 768.46 142.32 Z" fill="#1596D1"/><path d=" M 792.12 155.93 C 792.12 148.19 798.22 141.86 806.62 141.86 C 815.02 141.86 821.04 148.12 821.04 155.93 C 821.04 163.67 814.94 170 806.54 170 C 798.15 170 792.12 163.74 792.12 155.93 Z M 814.78 155.93 C 814.78 151.27 811.36 147.38 806.54 147.38 C 801.72 147.38 798.38 151.19 798.38 155.93 C 798.38 160.59 801.8 164.48 806.62 164.48 C 811.44 164.48 814.78 160.67 814.78 155.93 Z" fill="#1596D1"/><path d=" M 828.69 142.32 L 835.8 161.48 L 842.91 142.32 L 849.36 142.32 L 838.36 169.72 L 833.07 169.72 L 822.07 142.32 L 828.69 142.32 Z" fill="#1596D1"/><path d=" M 865.09 142.13 L 876.75 169.53 L 870.49 169.53 L 868 163.43 L 856.5 163.43 L 854.01 169.53 L 847.91 169.53 L 859.57 142.13 L 865.09 142.13 Z M 862.26 149.32 L 858.65 158.14 L 865.88 158.14 L 862.26 149.32 Z" fill="#1596D1"/><path d=" M 875.14 147.84 L 875.14 142.32 L 897.69 142.32 L 897.69 147.84 L 889.41 147.84 L 889.41 169.53 L 883.42 169.53 L 883.42 147.84 L 875.14 147.84 Z" fill="#1596D1"/><path d=" M 907.64 142.32 L 907.64 169.53 L 901.65 169.53 L 901.65 142.32 L 907.64 142.32 Z" fill="#1596D1"/><path d=" M 912.78 155.93 C 912.78 148.19 918.88 141.86 927.28 141.86 C 935.68 141.86 941.7 148.12 941.7 155.93 C 941.7 163.67 935.6 170 927.2 170 C 918.81 170 912.78 163.74 912.78 155.93 Z M 935.44 155.93 C 935.44 151.27 932.02 147.38 927.2 147.38 C 922.38 147.38 919.04 151.19 919.04 155.93 C 919.04 160.59 922.46 164.48 927.28 164.48 C 932.1 164.48 935.44 160.67 935.44 155.93 Z" fill="#1596D1"/><path d=" M 952.25 142.32 L 965 159.07 L 965 142.32 L 970.91 142.32 L 970.91 169.53 L 965.82 169.53 L 952.64 152.23 L 952.64 169.53 L 946.73 169.53 L 946.73 142.32 L 952.25 142.32 Z" fill="#1596D1"/></g></svg>